<svg width="196" height="59" viewBox="0 0 196 59" fill="none" xmlns="http://www.w3.org/2000/svg" preserveAspectRatio="none">
    <path vectorEffect="non-scaling-stroke" d="M1.00006 44.3762C1.12562 43.048 1.84798 38.9628 2.88939 36.3921C4.31 32.8853 5.37692 30.9037 6.31729 28.8677C7.19414 26.9693 8.0794 25.0493 9.81196 22.7039C11.4182 20.5296 14.3378 20.3266 17.4129 19.5283C18.5976 19.2207 20.1057 19.3047 21.7829 19.3776C24.0426 19.4758 25.1456 22.7826 25.8591 25.1538C26.6035 27.6279 27.4924 30.1644 28.604 34.5077C29.3158 37.2894 30.1333 39.3996 30.767 42.1017C31.4539 45.0309 31.6573 47.2899 32.1501 49.3381C32.7308 51.752 34.2478 54.1777 35.6561 55.7051C35.9623 56.0372 36.5589 55.8949 36.9909 55.7129C39.7493 54.5506 43.1806 51.518 45.3037 51.4602C47.8783 51.3902 47.8436 55.4906 49.1226 57.026C49.754 57.7841 51.1123 57.6311 52.1887 57.4304C54.2426 57.0473 54.5299 52.8737 55.1897 50.3266C56.0049 47.1797 57.2126 43.144 57.8628 40.657C58.9149 36.6329 59.9298 32.4732 60.9111 28.7659C61.705 25.7664 63.0246 22.7487 64.2463 19.0386C65.3036 15.8277 66.7684 13.0537 68.5087 11.8899C70.065 10.8492 72.0838 13.535 74.1427 14.3095C75.908 14.9736 77.516 11.3664 79.1074 8.63649C81.6217 4.3234 83.0586 1.77553 83.8827 1.23349C84.2917 0.964515 84.8094 0.932634 85.2248 1.11343C87.0498 1.90764 86.653 5.0896 86.883 7.73404C87.0812 10.0123 88.0605 12.8061 89.299 19.1078C89.5572 20.4211 89.7533 20.946 90.0931 21.3537C90.4329 21.7614 90.937 22.0306 91.4503 22.1494C93.5952 22.6456 95.926 20.3294 97.8474 18.2787C99.3788 16.6442 100.482 14.3479 102.552 13.2318C104.304 12.2873 105.882 14.6548 106.812 14.8497C109.03 15.3148 110.557 11.471 112.151 8.92614C113.56 6.678 114.594 4.98698 115.425 4.94113C122.492 4.55116 122.269 23.3317 122.818 26.3447C123.587 30.5713 124.017 32.5608 124.549 34.5442C124.801 35.485 126.361 36.6066 128.279 37.8113C129.059 38.3016 129.601 38.2812 130.095 38.0771C132.826 36.9495 133.811 32.7737 135.291 29.0736C138.245 21.6881 141.114 17.4735 142.868 16.4145C145.414 14.878 148.104 21.8013 149.756 23.537C150.115 23.9135 150.819 23.8427 151.395 23.7034C152.585 23.4158 154.086 21.896 155.801 20.694C156.413 20.265 156.846 20.8508 157.11 21.3763C157.657 22.4649 159.016 30.4019 161.174 41.9836C162.681 50.0727 164.541 53.977 165.415 56.2005C165.604 56.6807 165.772 57.1279 166.041 57.1276C168.446 57.1246 169.001 51.2172 170.113 46.2517C170.738 43.4582 171.472 38.3657 172.097 35.9446C172.723 33.5234 173.092 33.9026 173.602 34.8125C174.875 37.0858 175.698 39.1962 176.313 39.8044C176.906 40.3909 179.224 34.6341 182.465 26.9256C185.084 20.6976 185.759 17.0975 186.34 16.1335C188.261 14.7119 190.057 13.9847 191.48 13.7981C192.388 13.7204 193.674 13.6768 195 13.632" stroke="#69ABCE" stroke-width="2" stroke-linecap="round"/></svg>
