<svg width="54" height="69" viewBox="0 0 54 69" fill="none" xmlns="http://www.w3.org/2000/svg">
<path d="M53.72 60.6444C53.72 65.042 41.7041 68.5978 26.86 68.5978C12.0159 68.6059 0 65.042 0 60.6444C0 60.6444 0 32.8771 0 23.4197C0 22.7249 0.825581 22.3407 1.34872 22.8066C4.87992 25.9781 14.9586 28.2669 26.86 28.2669C38.7615 28.2669 48.8401 25.9781 52.3713 22.8066C52.8862 22.3407 53.72 22.733 53.72 23.4278V60.6444Z" fill="white" fill-opacity="0.82"/>
<path d="M51.2105 4.53756V18.6705C45.5786 26.4441 7.41384 25.8474 2.50122 18.8177V4.38225C2.50122 3.69563 3.30228 3.30328 3.82542 3.74468C11.6317 10.3412 42.3825 10.4065 49.8618 3.93268C50.3931 3.47493 51.2105 3.84277 51.2105 4.54574V4.53756Z" fill="white" fill-opacity="0.82"/>
<path d="M38.6485 2.1743C40.9418 2.1743 42.801 1.68757 42.801 1.08715C42.801 0.486734 40.9418 0 38.6485 0C36.3552 0 34.4961 0.486734 34.4961 1.08715C34.4961 1.68757 36.3552 2.1743 38.6485 2.1743Z" fill="white" fill-opacity="0.82"/>
<path d="M15.3209 2.1743C17.6142 2.1743 19.4733 1.68757 19.4733 1.08715C19.4733 0.486734 17.6142 0 15.3209 0C13.0276 0 11.1685 0.486734 11.1685 1.08715C11.1685 1.68757 13.0276 2.1743 15.3209 2.1743Z" fill="white" fill-opacity="0.82"/>
<path d="M32.9053 6.51489C35.2184 6.51489 37.0935 5.88986 37.0935 5.11884C37.0935 4.34783 35.2184 3.72279 32.9053 3.72279C30.5923 3.72279 28.7172 4.34783 28.7172 5.11884C28.7172 5.88986 30.5923 6.51489 32.9053 6.51489Z" fill="white" fill-opacity="0.82"/>
</svg>
